<?xml version="1.0" encoding="UTF-8" standalone="no"?>
<!-- Created with Inkscape (http://www.inkscape.org/) -->

<svg
   width="264.58334mm"
   height="63.44178mm"
   viewBox="0 0 264.58334 63.44178"
   version="1.1"
   id="svg265"
   inkscape:version="1.2 (dc2aedaf03, 2022-05-15)"
   sodipodi:docname="Lippo Mall Puri.svg"
   xmlns:inkscape="http://www.inkscape.org/namespaces/inkscape"
   xmlns:sodipodi="http://sodipodi.sourceforge.net/DTD/sodipodi-0.dtd"
   xmlns="http://www.w3.org/2000/svg"
   xmlns:svg="http://www.w3.org/2000/svg">
  <sodipodi:namedview
     id="namedview267"
     pagecolor="#ffffff"
     bordercolor="#000000"
     borderopacity="0.25"
     inkscape:showpageshadow="2"
     inkscape:pageopacity="0.0"
     inkscape:pagecheckerboard="0"
     inkscape:deskcolor="#d1d1d1"
     inkscape:document-units="mm"
     showgrid="false"
     inkscape:zoom="1"
     inkscape:cx="916"
     inkscape:cy="246.5"
     inkscape:window-width="1920"
     inkscape:window-height="1094"
     inkscape:window-x="-11"
     inkscape:window-y="-11"
     inkscape:window-maximized="1"
     inkscape:current-layer="layer1" />
  <defs
     id="defs262" />
  <g
     inkscape:label="Layer 1"
     inkscape:groupmode="layer"
     id="layer1"
     transform="translate(342.76913,229.69878)">
    <g
       id="g343">
      <polygon
         fill="#ffffff"
         points="365.451,127.614 341.988,127.614 341.988,84.949 346.018,84.949 346.018,124.18 368.893,124.18 "
         id="polygon4"
         style="fill:#000000"
         transform="matrix(0.88665257,0,0,0.88665257,-405.26572,-303.87968)" />
      <polygon
         fill="#ffffff"
         points="337.385,127.614 313.922,127.614 313.922,84.949 317.951,84.949 317.951,124.18 340.826,124.18 "
         id="polygon6"
         style="fill:#000000"
         transform="matrix(0.88665257,0,0,0.88665257,-405.26572,-303.87968)" />
      <polygon
         fill="#ffffff"
         points="70.486,127.561 70.486,84.964 78.886,84.964 78.886,119.904 100.153,119.904 100.153,127.561 "
         id="polygon8"
         style="fill:#000000"
         transform="matrix(0.88665257,0,0,0.88665257,-405.26572,-303.87968)" />
      <rect
         x="-313.6683"
         y="-228.54616"
         fill="#ffffff"
         width="7.3964553"
         height="37.768742"
         id="rect10"
         style="fill:#000000;stroke-width:0.886651" />
      <path
         fill="#ffffff"
         d="m -278.86895,-207.12548 c -2.21044,1.84687 -5.36871,2.769 -9.46945,2.769 h -7.86463 v 13.5782 h -7.39557 v -37.76697 h 15.77091 c 3.73811,0 6.7226,0.97179 8.94188,2.92064 2.22284,1.94797 3.3338,4.96258 3.3338,9.04472 0,4.45811 -1.10386,7.61105 -3.31694,9.45441 m -6.02215,-13.60394 c -1.00105,-0.83788 -2.39931,-1.25724 -4.20007,-1.25724 h -7.11186 v 11.12216 h 7.11186 c 1.80076,0 3.19902,-0.45485 4.20007,-1.35925 1.00015,-0.90528 1.5002,-2.34077 1.5002,-4.30379 0,-1.96483 -0.50005,-3.36396 -1.5002,-4.20188"
         id="path12"
         style="fill:#000000;stroke-width:0.886651" />
      <path
         fill="#ffffff"
         d="m -247.90527,-207.12548 c -2.20957,1.84687 -5.36871,2.769 -9.46945,2.769 h -7.86463 v 13.5782 h -7.39644 v -37.76697 h 15.77088 c 3.73902,0 6.72082,0.97179 8.94188,2.92064 2.22196,1.94797 3.33293,4.96258 3.33293,9.04472 0,4.45811 -1.10386,7.61105 -3.31517,9.45441 m -6.02214,-13.60394 c -0.99928,-0.83788 -2.40109,-1.25724 -4.20011,-1.25724 h -7.11183 v 11.12216 h 7.11183 c 1.79902,0 3.20083,-0.45485 4.20011,-1.35925 0.99746,-0.90528 1.49932,-2.34077 1.49932,-4.30379 -9e-4,-1.96483 -0.50186,-3.36396 -1.49932,-4.20188"
         id="path14"
         style="fill:#000000;stroke-width:0.886651" />
      <path
         fill="#ffffff"
         d="m -212.32568,-194.13514 c -2.85237,2.93837 -6.97972,4.40932 -12.37769,4.40932 -5.39615,0 -9.52441,-1.47008 -12.3741,-4.40932 -3.82592,-3.60159 -5.73931,-8.79647 -5.73931,-15.57761 0,-6.91767 1.91339,-12.11078 5.73931,-15.58027 2.84969,-2.93569 6.97795,-4.40576 12.3741,-4.40576 5.39797,0 9.52532,1.47007 12.37769,4.40576 3.80729,3.46949 5.71358,8.6626 5.71358,15.58027 0,6.78201 -1.90629,11.97689 -5.71358,15.57761 m -4.93513,-5.73753 c 1.83715,-2.30795 2.75928,-5.5868 2.75928,-9.84008 0,-4.23643 -0.92213,-7.51082 -2.75928,-9.82766 -1.83357,-2.31415 -4.31532,-3.47036 -7.44256,-3.47036 -3.1272,0 -5.6187,1.15353 -7.48069,3.46061 -1.86286,2.30353 -2.79206,5.58503 -2.79206,9.83741 0,4.25328 0.9292,7.53213 2.79206,9.84008 1.86199,2.30705 4.35349,3.45883 7.48069,3.45883 3.12724,0 5.60899,-1.15265 7.44256,-3.45883"
         id="path16"
         style="fill:#000000;stroke-width:0.886651" />
      <polygon
         fill="#ffffff"
         points="254.736,127.561 250.947,127.561 236.921,89.565 236.807,89.565 236.807,127.561 232.779,127.561 232.779,84.949 238.937,84.949 252.9,122.53 253.02,122.53 266.75,84.949 272.848,84.949 272.848,127.561 268.82,127.561 268.82,89.565 268.703,89.565 "
         id="polygon18"
         style="fill:#000000"
         transform="matrix(0.88665257,0,0,0.88665257,-405.26572,-303.87968)" />
      <polygon
         fill="#ffffff"
         points="295.88,84.948 312.211,127.562 308.067,127.562 293.449,88.381 278.715,127.562 274.573,127.562 291.322,84.948 "
         id="polygon20"
         style="fill:#000000"
         transform="matrix(0.88665257,0,0,0.88665257,-405.26572,-303.87968)" />
      <path
         fill="#ffffff"
         d="m -256.57675,-177.58666 c 0.27211,-0.0168 0.49208,-0.0339 0.61001,-0.0506 0.74569,-0.0516 1.62878,-0.10187 2.08631,-0.10187 1.50995,0 2.52785,0.2892 3.23984,0.89907 0.76338,0.6455 1.08526,1.44169 1.08526,2.61207 0,1.18724 -0.74569,2.35762 -1.86464,2.88341 -0.62776,0.30596 -1.37433,0.42469 -2.52785,0.42469 -0.13572,0 -0.72884,-0.0167 -1.15353,-0.0513 v 4.46075 h -1.4754 z m 1.4754,5.46176 c 0.45927,0.0168 0.71285,0.0168 1.18721,0.0168 1.00014,0 1.76447,-0.2386 2.20511,-0.6783 0.37328,-0.39014 0.59405,-0.93366 0.59405,-1.49313 0,-1.45942 -0.95048,-2.22284 -2.78231,-2.22284 -0.21983,0 -0.74479,0.0168 -1.20406,0.0523 z"
         id="path22"
         style="fill:#000000;stroke-width:0.886651" />
      <path
         fill="#ffffff"
         d="m -199.11191,-177.58666 c 1.16951,-0.13572 1.67932,-0.16924 2.74772,-0.16924 2.66351,0 4.15577,1.18637 4.15577,3.2895 0,0.96821 -0.49211,1.93555 -1.27323,2.52873 -0.25267,0.18632 -0.44067,0.2882 -0.91415,0.47526 l 3.47656,4.95196 h -1.78129 l -3.15559,-4.57958 h -1.78039 v 4.57958 h -1.4754 z m 1.4754,5.3935 h 2.13681 c 0.9842,0 1.7813,-0.94961 1.7813,-2.12086 0,-1.44172 -0.96734,-2.23882 -2.71405,-2.23882 h -0.32171 c -0.30495,0 -0.50893,0 -0.88221,0.0345 z"
         id="path24"
         style="fill:#000000;stroke-width:0.886651" />
      <rect
         x="-170.50227"
         y="-177.63719"
         fill="#ffffff"
         width="1.47539"
         height="11.125717"
         id="rect26"
         style="fill:#000000;stroke-width:0.886651" />
      <path
         fill="#ffffff"
         d="m -227.24098,-177.6372 v 6.75098 c 0,1.49135 0.27145,2.22106 1.03386,2.76458 0.50894,0.37238 1.23864,0.55947 2.1714,0.55947 1.17038,0 2.01892,-0.35642 2.50922,-1.08704 0.32372,-0.47435 0.45931,-1.15352 0.45931,-2.23701 v -6.75098 h 1.47449 v 6.68269 c 0,1.86554 -0.40609,2.98448 -1.4071,3.74699 -0.74657,0.59496 -1.95066,0.95052 -3.20616,0.95052 -1.6456,0 -2.83197,-0.42295 -3.59626,-1.27149 -0.67649,-0.74831 -0.9159,-1.62878 -0.9159,-3.42602 v -6.68269 z"
         id="path28"
         style="fill:#000000;stroke-width:0.886651" />
    </g>
  </g>
</svg>
